# xmcd CD database file
#
# Track frame offsets:
#	150
#	13527
#	37681
#	58565
#	75191
#	87258
#	99909
#	115378
#	128195
#	148599
#	170408
#	186412
#	195996
#	213630
#	226332
#	246521
#	267983
#	279969
#	291265
#	299257
#
# Disc length: 4234 seconds
#
# Revision: 0
# Processed by: cddbd v1.5.2PL0 Copyright (c) Steve Scherf et al.
# Submitted via: CDex 1.70beta2
#
DISCID=1a108814
DTITLE=ACID DRINKERS - ARE YOU A REBEL ?
DYEAR=2008
DGENRE=Thrash Metal
TTITLE0=ACID DRINKERS - DEL ROCCA
TTITLE1=ACID DRINKERS - BARMY ARMY
TTITLE2=ACID DRINKERS - I MEAN ACID (DO YA LIKE IT?)
TTITLE3=ACID DRINKERS - WAITINﾒ FOR THE HAIR
TTITLE4=ACID DRINKERS - L.O.V.E. MACHINE
TTITLE5=ACID DRINKERS - F--- THE VIOLENCE (IﾒM SURE IﾒM RIGHT)
TTITLE6=ACID DRINKERS - I AM THE MYSTIC
TTITLE7=ACID DRINKERS - WOMAN WITH THE DIRTY FEET
TTITLE8=ACID DRINKERS - MEGALOPOLIS
TTITLE9=ACID DRINKERS - NAGASAKI BABY
TTITLE10=ACID DRINKERS - MOSHINﾒ IN THE NITE
TTITLE11=ACID DRINKERS - MIKE CWEL
TTITLE12=ACID DRINKERS - FUCK ME
TTITLE13=ACID DRINKERS - DEL ROCCA
TTITLE14=ACID DRINKERS - NAGASAKI BABY
TTITLE15=ACID DRINKERS - I MEAN ACID (DO YA LIKE IT?)
TTITLE16=ACID DRINKERS - RUNNING WITH THE DEVIL
TTITLE17=ACID DRINKERS - KONSUMENT
TTITLE18=ACID DRINKERS - OK, I FEEL ALL RIGHT
TTITLE19=ACID DRINKERS - III WOJNA
EXTD=YEAR: 2008
EXTT0=
EXTT1=
EXTT2=
EXTT3=
EXTT4=
EXTT5=
EXTT6=
EXTT7=
EXTT8=
EXTT9=
EXTT10=
EXTT11=
EXTT12=
EXTT13=
EXTT14=
EXTT15=
EXTT16=
EXTT17=
EXTT18=
EXTT19=
PLAYORDER=
